pedal_clip_forces_x_-0.09_y_-0.04.mot
version=1
nRows=146
nColumns=4
inDegrees=yes
endheader
time	PedalClip_calcn_r_Fx	PedalClip_calcn_r_Fy	PedalClip_calcn_r_Fz
0.3905421	-173.72199306581	427.17027966205	0
0.39087935	-173.130770582747	425.374463890304	0
0.39091307	-172.540969203414	423.580967873266	0
0.39095646	-171.952776474702	421.790816945547	0
0.39117342	-171.366476069653	420.005082515712	0
0.39171632	-170.782366697694	418.224599003662	0
0.39179248	-170.200688390878	416.449888925055	0
0.39217332	-169.621642781182	414.681229562492	0
0.3922114	-169.04535430033	412.918637658389	0
0.39226968	-168.471810560574	411.161845984064	0
0.39240905	-167.900940836543	409.410624229406	0
0.39285932	-167.33270564833	407.664881798743	0
0.39299322	-166.767071928849	405.924576033306	0
0.39330087	-166.204051674629	404.18966235707	0
0.39361241	-165.643656780327	402.460069669101	0
0.39364356	-165.085893044703	400.735713199885	0
0.39367472	-164.530795199868	399.016653872901	0
0.39383049	-163.978440583596	397.303082196332	0
0.3940733	-163.428917774106	395.595226951807	0
0.39440889	-162.882305174176	393.89331260731	0
0.39444245	-162.338686594937	392.197560081173	0
0.39448459	-161.798133052176	390.50816810769	0
0.39469529	-161.260678437096	388.825326033451	0
0.39523838	-160.726367696708	387.149305919039	0
0.39531308	-160.195239830408	385.48042668461	0
0.39562708	-159.667333691915	383.819065467801	0
0.39565848	-159.142702085964	382.165452345657	0
0.3956992	-158.621394175911	380.520073562983	0
0.3959028	-158.103374298474	378.883006890503	0
0.39613596	-157.588530712502	377.253829492233	0
0.39648609	-157.076756365445	375.632102389151	0
0.39652111	-156.567953013856	374.017412661833	0
0.39656781	-156.062055560267	372.40943281361	0
0.39680133	-155.559020752157	370.808063199765	0
0.39730332	-155.058853534039	369.213288879535	0
0.39735352	-154.561586533607	367.625091931208	0
0.39746373	-154.067270210528	366.043388283986	0
0.39776248	-153.575928738508	364.467966379284	0
0.39806887	-153.087540515482	362.898467680481	0
0.39809951	-152.602039495776	361.334465967876	0
0.39813015	-152.119337835681	359.775636688326	0
0.39828335	-151.639343376524	358.221755775298	0
0.39855731	-151.161985322241	356.672784869049	0
0.39887964	-150.687237373262	355.128872991349	0
0.39891187	-150.215093259872	353.590082640941	0
0.3989441	-149.745568515739	352.056243858083	0
0.39910527	-149.278833038758	350.527160883638	0
0.39932536	-148.815062900452	349.002812375203	0
0.39968968	-148.354478913082	347.483411885628	0
0.39972612	-147.897120143777	345.96879886919	0
0.39977682	-147.442857288149	344.458584803749	0
0.40003032	-146.991468328497	342.952252924066	0
0.40042404	-146.542661334446	341.44913536326	0
0.40046342	-146.096208792163	339.948812072028	0
0.40054737	-145.651732877745	338.450715334523	0
0.40081672	-145.208811667393	336.95445028687	0
0.40120708	-144.767152786585	335.460129516047	0
0.40124611	-144.32662655903	333.967937330068	0
0.40132223	-143.887177630636	332.477741177327	0
0.40162204	-143.448789798054	330.98941259096	0
0.40193943	-143.011505287817	329.503134055018	0
0.40197117	-142.575361600241	328.019099430733	0
0.40200291	-142.140399403583	326.537487792728	0
0.40216161	-141.706636851298	325.058456266102	0
0.40235718	-141.274086415477	323.582287700862	0
0.40277142	-140.842767652461	322.109261199143	0
0.40281285	-140.412703009874	320.639531517259	0
0.40295287	-139.983917396417	319.173050540462	0
0.40316079	-139.556346110547	317.709502845998	0
0.40334953	-139.129820646034	316.248449825799	0
0.40378979	-138.704185515459	314.789588117727	0
0.40383381	-138.279378952675	313.33284618577	0
0.40391196	-137.855311306244	311.878223435382	0
0.40405965	-137.431901596752	310.42576872877	0
0.40417514	-137.009018241436	308.97531118796	0
0.40440694	-136.586600937449	307.526640782673	0
0.40476627	-136.16475595798	306.079876895507	0
0.40480221	-135.743617454317	304.635293869733	0
0.40484966	-135.32330604859	303.192963333495	0
0.40508694	-134.903912175835	301.752953993059	0
0.40567002	-134.485485505625	300.315185022625	0
0.40581318	-134.068064419548	298.879396053385	0
0.40635201	-133.651717781253	297.445473782797	0
0.40642761	-133.236516223574	296.013468631079	0
0.40680557	-132.822473946275	294.58342327395	0
0.40684337	-132.409632661484	293.15554308432	0
0.40688117	-131.998114082732	291.730381596787	0
0.40707015	-131.588113756011	290.308749632892	0
0.40755958	-131.179892163266	288.891717958402	0
0.40760852	-130.773766297062	287.480641654254	0
0.40765747	-130.370059209493	286.076954955847	0
0.40779012	-129.969077444813	284.681985102133	0
0.4079714	-129.571152579972	283.296698248262	0
0.40824373	-129.176623851385	281.921559333804	0
0.40858052	-128.785739101274	280.556626379765	0
0.4086142	-128.398525011864	279.201060228287	0
0.40865481	-128.014829809593	277.853514471634	0
0.40885782	-127.634489883829	276.51352848071	0
0.40912035	-127.257324294791	275.180844380731	0
0.40946672	-126.883181795717	273.854963066407	0
0.40950135	-126.511952436372	272.535444362575	0
0.40954448	-126.143610235382	271.222630245355	0
0.40976012	-125.778176775839	269.917014086849	0
0.41003911	-125.415681321398	268.618611539164	0
0.41037845	-125.055965175784	267.326782679767	0
0.41041238	-124.69877159278	266.040563370745	0
0.41045335	-124.343925331149	264.759065278547	0
0.41065818	-123.991305542192	263.481664376442	0
0.41091641	-123.640765956006	262.20782252546	0
0.41126917	-123.292136793409	260.937224731791	0
0.41130445	-122.945323008714	259.669992453271	0
0.41134918	-122.600272261032	258.406216813081	0
0.41157282	-122.256969189	257.145782117457	0
0.41185992	-121.915455776743	255.888592101524	0
0.41219959	-121.575845022743	254.634859562716	0
0.41223356	-121.238328677275	253.385248786056	0
0.41226752	-120.90305842288	252.14049011233	0
0.41243736	-120.570044224292	250.901326146648	0
0.41263602	-120.239131213799	249.668474006098	0
0.41307874	-119.909988327521	248.442268599939	0
0.41312302	-119.58211610559	247.221938375571	0
0.4132173	-119.254955602833	246.005037965284	0
0.41338455	-118.928163066599	244.788252560189	0
0.41352385	-118.601664782851	243.569561536849	0
0.41386799	-118.275614498693	242.349386484174	0
0.41417445	-117.95022927423	241.128904762329	0
0.4142051	-117.625671427246	239.909418542515	0
0.41424275	-117.301911183641	238.691078520652	0
0.41443103	-116.978864300532	237.473743056306	0
0.41462326	-116.656472887048	236.257395854394	0
0.41513433	-116.334726493535	235.042121507744	0
0.41518543	-116.013587294277	233.828029019275	0
0.41523654	-115.693028161736	232.615269939306	0
0.41549207	-115.373051438148	231.403987011898	0
0.4157936	-115.053694548146	230.194247610002	0
0.41612324	-114.735054371502	228.986144057054	0
0.4161562	-114.41721086425	227.779711722203	0
0.41618917	-114.100194777673	226.574767828398	0
0.41635398	-113.784028514897	225.371226680763	0
0.41654907	-113.468713109302	224.169003860714	0
0.41706176	-113.154254281626	222.967984455381	0
0.41711302	-112.840711530061	221.768253818887	0
0.41716429	-112.528174242589	220.570046792238	0
0.41742063	-112.21673531001	219.373588114472	0
0.41777136	-111.906448419077	218.178908424651	0
0.4180038	-111.597349038179	216.986067445891	0
